<svg width="264" height="264" viewBox="0 0 264 264" fill="none" xmlns="http://www.w3.org/2000/svg">
<path d="M132 0C156.24 2.89061e-07 180.012 6.67478 200.71 19.2924C221.407 31.9101 238.23 49.9833 249.335 71.5303L132 132L132 0Z" fill="#FF6C47"/>
<path d="M249.059 70.9977C264.51 100.647 268.134 135.056 259.2 167.274C250.265 199.493 229.437 227.12 200.922 244.578L132 132L249.059 70.9977Z" fill="#A3A3A3"/>
<path d="M201.566 244.181C180.597 257.184 156.403 264.05 131.73 264C107.056 263.949 82.8901 256.984 61.9745 243.895C41.0588 230.805 24.2305 212.116 13.399 189.947C2.56748 167.777 -1.83364 143.016 0.695017 118.472L132 132L201.566 244.181Z" fill="#D4D4D4"/>
<path d="M132 0C99.3288 -3.896e-07 67.8184 12.1162 43.5637 34.005C19.3091 55.8938 4.03366 85.9997 0.692195 118.5L132 132L132 0Z" fill="#E5E5E5"/>
</svg>
