<svg width="96" height="96" viewBox="0 0 96 96" fill="none" xmlns="http://www.w3.org/2000/svg">
<path d="M96 48C96 74.5097 74.5097 96 48 96C21.4903 96 0 74.5097 0 48C0 21.4903 21.4903 0 48 0C74.5097 0 96 21.4903 96 48ZM9.6 48C9.6 69.2077 26.7923 86.4 48 86.4C69.2077 86.4 86.4 69.2077 86.4 48C86.4 26.7923 69.2077 9.6 48 9.6C26.7923 9.6 9.6 26.7923 9.6 48Z" fill="#FF6C47" fill-opacity="0.3"/>
<path d="M48 4.8C48 2.14903 50.1544 -0.0248752 52.7922 0.239773C60.9711 1.06038 68.8313 3.9715 75.6003 8.72881C83.6829 14.4094 89.8158 22.4455 93.1623 31.7406C96.5087 41.0357 96.9056 51.1369 94.2988 60.6659C91.6919 70.1949 86.2084 78.6874 78.5963 84.9846C70.9843 91.2818 61.6147 95.0769 51.766 95.852C41.9174 96.6271 32.0694 94.3445 23.566 89.3156C15.0626 84.2867 8.31804 76.7566 4.25264 67.7527C0.847974 60.2122 -0.538726 51.9457 0.187779 43.7579C0.422079 41.1173 2.96118 39.4084 5.56519 39.9051V39.9051C8.1692 40.4019 9.84554 42.9179 9.67734 45.5636C9.28088 51.7992 10.411 58.0635 13.0021 63.8021C16.2544 71.0052 21.6501 77.0294 28.4528 81.0525C35.2555 85.0756 43.1339 86.9017 51.0128 86.2816C58.8918 85.6615 66.3875 82.6255 72.4771 77.5877C78.5667 72.55 82.9535 65.7559 85.039 58.1327C87.1245 50.5095 86.807 42.4285 84.1298 34.9925C81.4527 27.5564 76.5463 21.1275 70.0802 16.5831C64.9287 12.9625 58.9872 10.6786 52.7877 9.89959C50.1574 9.56907 48 7.45097 48 4.8V4.8Z" fill="#FF6C47"/>
</svg>
